<mxfile host="app.diagrams.net" modified="2023-10-11T10:35:15.255Z" agent="Mozilla/5.0 (Windows NT 10.0; Win64; x64) AppleWebKit/537.36 (KHTML, like Gecko) Chrome/117.0.0.0 Safari/537.36" etag="tLT4eHJZDMwKxqn5dWI1" version="22.0.4" type="github">
  <diagram name="Page-1" id="dx2Keyk4RebEjHlZLbdq">
    <mxGraphModel dx="819" dy="439" grid="1" gridSize="10" guides="1" tooltips="1" connect="1" arrows="1" fold="1" page="1" pageScale="1" pageWidth="850" pageHeight="1100" math="0" shadow="0">
      <root>
        <mxCell id="0" />
        <mxCell id="1" parent="0" />
        <mxCell id="IIWOretUkINQSwrZmsNc-3" value="" style="edgeStyle=orthogonalEdgeStyle;rounded=0;orthogonalLoop=1;jettySize=auto;html=1;" edge="1" parent="1" source="S_7-efMBnR_kWzVphuDj-1" target="IIWOretUkINQSwrZmsNc-2">
          <mxGeometry relative="1" as="geometry" />
        </mxCell>
        <mxCell id="S_7-efMBnR_kWzVphuDj-1" value="CAD&lt;br&gt;design" style="rounded=1;whiteSpace=wrap;html=1;fontFamily=Times New Roman;" parent="1" vertex="1">
          <mxGeometry x="60" y="30" width="100" height="60" as="geometry" />
        </mxCell>
        <mxCell id="IIWOretUkINQSwrZmsNc-5" value="" style="edgeStyle=orthogonalEdgeStyle;rounded=0;orthogonalLoop=1;jettySize=auto;html=1;" edge="1" parent="1" source="IIWOretUkINQSwrZmsNc-2" target="IIWOretUkINQSwrZmsNc-4">
          <mxGeometry relative="1" as="geometry" />
        </mxCell>
        <mxCell id="IIWOretUkINQSwrZmsNc-2" value="PREPROCESSING" style="whiteSpace=wrap;html=1;fontFamily=Times New Roman;rounded=1;" vertex="1" parent="1">
          <mxGeometry x="200" y="30" width="120" height="60" as="geometry" />
        </mxCell>
        <mxCell id="IIWOretUkINQSwrZmsNc-7" value="" style="edgeStyle=orthogonalEdgeStyle;rounded=0;orthogonalLoop=1;jettySize=auto;html=1;" edge="1" parent="1" source="IIWOretUkINQSwrZmsNc-4" target="IIWOretUkINQSwrZmsNc-6">
          <mxGeometry relative="1" as="geometry" />
        </mxCell>
        <mxCell id="IIWOretUkINQSwrZmsNc-4" value="PRINT" style="whiteSpace=wrap;html=1;fontFamily=Times New Roman;rounded=1;" vertex="1" parent="1">
          <mxGeometry x="360" y="30" width="80" height="60" as="geometry" />
        </mxCell>
        <mxCell id="IIWOretUkINQSwrZmsNc-6" value="POST-PROCESSING" style="whiteSpace=wrap;html=1;fontFamily=Times New Roman;rounded=1;" vertex="1" parent="1">
          <mxGeometry x="480" y="30" width="120" height="60" as="geometry" />
        </mxCell>
        <mxCell id="IIWOretUkINQSwrZmsNc-10" value="" style="edgeStyle=orthogonalEdgeStyle;rounded=0;orthogonalLoop=1;jettySize=auto;html=1;" edge="1" parent="1" source="IIWOretUkINQSwrZmsNc-8" target="IIWOretUkINQSwrZmsNc-9">
          <mxGeometry relative="1" as="geometry" />
        </mxCell>
        <mxCell id="IIWOretUkINQSwrZmsNc-8" value="&lt;font face=&quot;Times New Roman&quot;&gt;ORIENTATION OPTIMIZATION&lt;/font&gt;" style="rounded=1;whiteSpace=wrap;html=1;" vertex="1" parent="1">
          <mxGeometry x="80" y="150" width="120" height="60" as="geometry" />
        </mxCell>
        <mxCell id="IIWOretUkINQSwrZmsNc-12" value="" style="edgeStyle=orthogonalEdgeStyle;rounded=0;orthogonalLoop=1;jettySize=auto;html=1;" edge="1" parent="1" source="IIWOretUkINQSwrZmsNc-9" target="IIWOretUkINQSwrZmsNc-11">
          <mxGeometry relative="1" as="geometry" />
        </mxCell>
        <mxCell id="IIWOretUkINQSwrZmsNc-9" value="&lt;font face=&quot;Times New Roman&quot;&gt;SUPPORT OPTIMIZATION&lt;/font&gt;" style="whiteSpace=wrap;html=1;rounded=1;" vertex="1" parent="1">
          <mxGeometry x="240" y="150" width="120" height="60" as="geometry" />
        </mxCell>
        <mxCell id="IIWOretUkINQSwrZmsNc-11" value="&lt;font face=&quot;Times New Roman&quot;&gt;MACHINE INSTRUCTION GENERATION (SLICING)&lt;/font&gt;" style="whiteSpace=wrap;html=1;rounded=1;" vertex="1" parent="1">
          <mxGeometry x="400" y="150" width="160" height="60" as="geometry" />
        </mxCell>
        <mxCell id="IIWOretUkINQSwrZmsNc-13" value="" style="endArrow=classic;html=1;rounded=0;entryX=0;entryY=0.5;entryDx=0;entryDy=0;" edge="1" parent="1" target="IIWOretUkINQSwrZmsNc-8">
          <mxGeometry width="50" height="50" relative="1" as="geometry">
            <mxPoint x="40" y="180" as="sourcePoint" />
            <mxPoint x="70" y="180" as="targetPoint" />
          </mxGeometry>
        </mxCell>
        <mxCell id="IIWOretUkINQSwrZmsNc-14" value="" style="endArrow=classic;html=1;rounded=0;exitX=1;exitY=0.5;exitDx=0;exitDy=0;" edge="1" parent="1" source="IIWOretUkINQSwrZmsNc-11">
          <mxGeometry width="50" height="50" relative="1" as="geometry">
            <mxPoint x="570" y="179.58" as="sourcePoint" />
            <mxPoint x="600" y="180" as="targetPoint" />
          </mxGeometry>
        </mxCell>
        <mxCell id="IIWOretUkINQSwrZmsNc-18" value="" style="curved=1;endArrow=classic;html=1;rounded=0;exitX=0;exitY=0.75;exitDx=0;exitDy=0;" edge="1" parent="1" source="IIWOretUkINQSwrZmsNc-2">
          <mxGeometry width="50" height="50" relative="1" as="geometry">
            <mxPoint x="190" y="80" as="sourcePoint" />
            <mxPoint x="40" y="140" as="targetPoint" />
            <Array as="points">
              <mxPoint x="190" y="100" />
            </Array>
          </mxGeometry>
        </mxCell>
      </root>
    </mxGraphModel>
  </diagram>
</mxfile>
